# xmcd
# 
# Track frame offsets:
#     150
#     19071
#     34562
#     52339
#     68057
#     86832
#     105805
#     125028
#     143698
#     162200
#     184436
#     202844
#     223959
#     243305
#     262859
#     279631
# 
# Disc length: 3978
# 
# Revision: 6
# Processed by: cddbd v1.5.2PL0 Copyright (c) Steve Scherf et al.
# Submitted via: fre:ac v1.0.31
# 
DISCID=e70f8810
DTITLE=Juan Luis Guerra - Grandes Exitos
DYEAR=1996
DGENRE=Bachata
TTITLE0=El Costo De La Vida
TTITLE1=Rosalía
TTITLE2=Si Tú Te Vas
TTITLE3=Visa Para Un Sueño
TTITLE4=Burbujas De Amor
TTITLE5=Ojalá Que Llueva Café
TTITLE6=Me Enamoro De Ella
TTITLE7=Frío Frío
TTITLE8=Como Abeja Al Panal
TTITLE9=A Pedir Su Mano
TTITLE10=La Bilirrubina
TTITLE11=Carta De Amor
TTITLE12=Bachata Rosa
TTITLE13=Guavaberry
TTITLE14=La Cosquillita
TTITLE15=Señorita
EXTD=
EXTT0=
EXTT1=
EXTT2=
EXTT3=
EXTT4=
EXTT5=
EXTT6=
EXTT7=
EXTT8=
EXTT9=
EXTT10=
EXTT11=
EXTT12=
EXTT13=
EXTT14=
EXTT15=
PLAYORDER=
